<svg preserveAspectRatio="none" overflow="visible" style="display: block;" width="24" height="24" viewBox="0 0 24 24" fill="none" xmlns="http://www.w3.org/2000/svg">
<g id="Icon/Rank/24">
<path id="Rectangle 42734" d="M7.33301 4H16.667C17.4031 4.00018 17.9998 4.59689 18 5.33301V10C18 13.3137 15.3137 16 12 16C8.68629 16 6 13.3137 6 10V5.33301C6.00018 4.59689 6.59689 4.00018 7.33301 4Z" stroke="#6C737F" stroke-width="2"/>
<path id="Vector 1048" d="M12 16L12 20" stroke="#6C737F" stroke-width="2" stroke-linecap="round"/>
<path id="Vector 1049" d="M16 20H8" stroke="#6C737F" stroke-width="2" stroke-linecap="round"/>
<path id="Rectangle 42735" d="M4.5 6H6V11H4.5C3.11929 11 2 9.88071 2 8.5C2 7.11929 3.11929 6 4.5 6Z" stroke="#6C737F" stroke-width="2"/>
<path id="Rectangle 42736" d="M19.5 6H18V11H19.5C20.8807 11 22 9.88071 22 8.5C22 7.11929 20.8807 6 19.5 6Z" stroke="#6C737F" stroke-width="2"/>
<circle id="Ellipse 311" cx="12" cy="9" r="2" fill="#6C737F"/>
</g>
</svg>
