<svg width="24" height="24" viewBox="0 0 24 24" fill="none" xmlns="http://www.w3.org/2000/svg">
<path d="M14.9996 2.40039V6.00039C14.9996 6.66313 15.5369 7.20039 16.1996 7.20039H19.7996M17.9996 4.20039C17.4655 3.72253 16.9113 3.15577 16.5614 2.78767C16.3286 2.54273 16.007 2.40039 15.669 2.40039H6.59931C5.27383 2.40039 4.19932 3.4749 4.19931 4.80038L4.19922 19.2003C4.19921 20.5258 5.27372 21.6003 6.59921 21.6003L17.3993 21.6004C18.7247 21.6004 19.7992 20.5259 19.7993 19.2004L19.7996 6.47822C19.7996 6.17138 19.6825 5.87643 19.4696 5.65552C19.0758 5.24704 18.4182 4.57491 17.9996 4.20039Z" stroke="#909AA9" stroke-width="2" stroke-linecap="round" stroke-linejoin="round"/>
</svg>
