<svg width="60" height="100.5" viewBox="0 0 60 100.5" fill="none" xmlns="http://www.w3.org/2000/svg">
<g clip-path="url(#clip0_224_4499)">
<path d="M48.2587 12.0509C50.1796 1.48846 36.4194 -4.34046 30.1469 4.38336C24.0117 -4.43826 10.1535 1.13638 11.8784 11.738C1.74446 9.89932 -3.97916 22.3983 3.23417 28.9509V100.502H56.8441V29.1074L56.9617 29.1465C63.783 22.633 58.2554 10.4079 48.2391 12.0509H48.2587Z" fill="#D6DBE4"/>
<path d="M22.2084 13.8096C24.2328 13.8096 25.8739 12.172 25.8739 10.1519C25.8739 8.13177 24.2328 6.49414 22.2084 6.49414C20.1841 6.49414 18.543 8.13177 18.543 10.1519C18.543 12.172 20.1841 13.8096 22.2084 13.8096Z" fill="white"/>
<path d="M38.3798 13.8096C40.4042 13.8096 42.0453 12.172 42.0453 10.1519C42.0453 8.13177 40.4042 6.49414 38.3798 6.49414C36.3554 6.49414 34.7144 8.13177 34.7144 10.1519C34.7144 12.172 36.3554 13.8096 38.3798 13.8096Z" fill="white"/>
<path d="M11.0746 25.1749C13.099 25.1749 14.7401 23.5372 14.7401 21.5171C14.7401 19.497 13.099 17.8594 11.0746 17.8594C9.05027 17.8594 7.40918 19.497 7.40918 21.5171C7.40918 23.5372 9.05027 25.1749 11.0746 25.1749Z" fill="white"/>
<path d="M49.8071 25.2706C51.8315 25.2706 53.4725 23.6329 53.4725 21.6128C53.4725 19.5927 51.8315 17.9551 49.8071 17.9551C47.7827 17.9551 46.1416 19.5927 46.1416 21.6128C46.1416 23.6329 47.7827 25.2706 49.8071 25.2706Z" fill="white"/>
<path d="M40.3401 23.044L41.3985 24.863C44.2799 29.8509 40.6733 36.0906 34.8909 36.0906H25.0901C19.3077 36.0906 15.701 29.8509 18.5825 24.863L19.6409 23.044C24.2473 15.1025 35.7337 15.1025 40.3401 23.044Z" fill="white"/>
</g>
<defs>
<clipPath id="clip0_224_4499">
<rect width="60" height="100.5" fill="white"/>
</clipPath>
</defs>
</svg>
