<svg preserveAspectRatio="none" width="100%" height="100%" overflow="visible" style="display: block;" viewBox="0 0 11.7677 11.7677" fill="none" xmlns="http://www.w3.org/2000/svg">
<path id="Star 8" d="M5.42325 0.305428C5.59528 -0.101809 6.17239 -0.10181 6.34442 0.305427L7.78534 3.71632C7.836 3.83624 7.93143 3.93167 8.05135 3.98233L11.4622 5.42325C11.8695 5.59528 11.8695 6.17239 11.4622 6.34442L8.05135 7.78534C7.93143 7.836 7.836 7.93143 7.78534 8.05135L6.34442 11.4622C6.17239 11.8695 5.59528 11.8695 5.42325 11.4622L3.98233 8.05135C3.93167 7.93143 3.83624 7.836 3.71632 7.78534L0.305428 6.34442C-0.101809 6.17239 -0.10181 5.59528 0.305427 5.42325L3.71632 3.98233C3.83624 3.93167 3.93167 3.83624 3.98233 3.71632L5.42325 0.305428Z" fill="#FFFFFF"/>
</svg>
