<svg preserveAspectRatio="none" width="100%" height="100%" overflow="visible" style="display: block;" viewBox="0 0 14.2252 14.226" fill="none" xmlns="http://www.w3.org/2000/svg">
<path id="Vector" d="M4.75634 9.4705L9.4705 4.75634M2.988 6.52384L1.80967 7.70217C1.50013 8.01171 1.25459 8.37918 1.08707 8.78361C0.919555 9.18804 0.833333 9.6215 0.833333 10.0593C0.833333 10.497 0.919555 10.9305 1.08707 11.3349C1.25459 11.7393 1.50013 12.1068 1.80967 12.4163C2.11921 12.7259 2.48668 12.9714 2.89111 13.1389C3.29554 13.3064 3.729 13.3927 4.16675 13.3927C4.6045 13.3927 5.03797 13.3064 5.4424 13.1389C5.84683 12.9714 6.2143 12.7259 6.52384 12.4163L7.7005 11.238M6.523 2.988L7.70134 1.80967C8.01087 1.50013 8.37835 1.25459 8.78277 1.08707C9.1872 0.919555 9.62067 0.833333 10.0584 0.833333C10.4962 0.833333 10.9296 0.919555 11.3341 1.08707C11.7385 1.25459 12.106 1.50013 12.4155 1.80967C12.725 2.11921 12.9706 2.48668 13.1381 2.89111C13.3056 3.29554 13.3918 3.729 13.3918 4.16675C13.3918 4.6045 13.3056 5.03797 13.1381 5.4424C12.9706 5.84683 12.725 6.2143 12.4155 6.52384L11.2372 7.70217" stroke="white" stroke-width="1.66667" stroke-linecap="round" stroke-linejoin="round"/>
</svg>
